<?xml version="1.0" encoding="UTF-8" standalone="no"?>
<!-- Created with Inkscape (http://www.inkscape.org/) -->

<svg
   width="45.218628mm"
   height="37.469528mm"
   viewBox="0 0 45.218628 37.469528"
   version="1.1"
   id="svg1"
   xmlns="http://www.w3.org/2000/svg"
   xmlns:svg="http://www.w3.org/2000/svg">
   <style>
   	@media (prefers-color-scheme: dark) {
		#path28 {
			fill: #00a2ff;
		}
	}

	@media (prefers-color-scheme: light) {
		#path28 {
			fill: #5900ff;
		}
	}
   </style>
  <defs
     id="defs1" />
  <g
     id="layer1"
     transform="translate(-70.772495,-110.20247)">
    <path
       id="path28"
       style="baseline-shift:baseline;display:inline;overflow:visible;opacity:1;vector-effect:none;enable-background:accumulate;stop-color:#000000"
       d="m 87.448174,111.6246 c -8.668693,3.59069 -13.224734,13.01762 -11.008362,21.86529 l 5.155744,-2.13558 c -1.139743,-6.0351 2.044052,-12.19907 7.95735,-14.64844 5.9133,-2.44937 12.522084,-0.34162 15.983274,4.73191 l 5.15575,-2.13558 c -4.68877,-7.82357 -14.575069,-11.26829 -23.243756,-7.6776 z m -14.971908,23.49642 a 2.7601802,2.7601802 0 0 0 -1.493526,3.60663 2.7601802,2.7601802 0 0 0 3.606165,1.49373 2.7601802,2.7601802 0 0 0 1.684983,-2.87434 l 16.177171,-6.70081 a 2.7601802,2.7601802 0 0 0 3.22393,0.841 2.7601802,2.7601802 0 0 0 1.684984,-2.87434 l 8.088587,-3.3504 c 2.03276,-0.0308 2.19235,1.25655 2.19235,1.25655 1.14029,6.03535 -2.0418,12.20038 -7.955128,14.64976 -5.913328,2.44938 -12.52382,0.34057 -15.985497,-4.73322 l -5.155745,2.13558 c 4.689139,7.82376 14.577266,11.2696 23.24597,7.67891 8.66871,-3.5907 13.22293,-13.01876 11.00615,-21.86661 -0.36399,-1.84425 1.35589,-2.72628 1.35589,-2.72628 l 1.83857,-0.76156 -0.57409,-1.38598 -18.631624,7.71747 a 2.7601802,2.7601802 0 0 0 -3.223056,-0.84024 2.7601802,2.7601802 0 0 0 -1.684905,2.87319 l -16.178124,6.7012 a 2.7601802,2.7601802 0 0 0 -3.223055,-0.84024 z" />
  </g>
</svg>
