<?xml version="1.0" encoding="UTF-8" standalone="no"?>
<!-- Created with Inkscape (http://www.inkscape.org/) -->

<svg
   width="102.45205mm"
   height="102.45207mm"
   viewBox="0 0 102.45205 102.45207"
   version="1.1"
   id="svg1"
   xmlns="http://www.w3.org/2000/svg"
   xmlns:svg="http://www.w3.org/2000/svg">
  <defs
     id="defs1">
    <mask
       maskUnits="userSpaceOnUse"
       id="mask9">
      <rect
         style="fill:#ffffff;stroke:none;stroke-width:6.00001;stroke-linecap:square;stroke-linejoin:round;paint-order:markers fill stroke"
         id="path9"
         width="102.45206"
         height="102.45206"
         x="53.773972"
         y="97.273972"
         clip-path="none" />
    </mask>
  </defs>
  <g
     id="layer1"
     transform="translate(-53.773966,-97.273973)">
    <rect
       style="fill:none;stroke:none;stroke-width:6.00001;stroke-linecap:square;stroke-linejoin:round;paint-order:markers fill stroke"
       id="rect1"
       width="102.45206"
       height="102.45206"
       x="53.773972"
       y="97.273972" />
    <path
       id="path3"
       style="baseline-shift:baseline;display:inline;overflow:visible;opacity:1;vector-effect:none;stroke-linecap:round;stroke-linejoin:round;paint-order:markers fill stroke;enable-background:accumulate;stop-color:#000000;stop-opacity:1"
       d="m 58.592806,89.566109 a 3.2604499,3.2604499 0 0 0 -2.305802,0.955497 L -55.058655,201.86726 a 3.2604499,3.2604499 0 0 0 0,4.61109 3.2604499,3.2604499 0 0 0 4.609538,0 L 60.898608,95.132694 a 3.2604499,3.2604499 0 0 0 0,-4.611088 3.2604499,3.2604499 0 0 0 -2.305802,-0.955497 z m 20.415808,0 a 3.2604499,3.2604499 0 0 0 -2.305286,0.955497 L -34.64233,201.86726 a 3.2604499,3.2604499 0 0 0 0,4.61109 3.2604499,3.2604499 0 0 0 4.609021,0 L 81.314417,95.132694 a 3.2604499,3.2604499 0 0 0 0,-4.611088 3.2604499,3.2604499 0 0 0 -2.305803,-0.955497 z m 20.416325,0 a 3.2604499,3.2604499 0 0 0 -2.305802,0.955497 L -14.226522,201.86726 a 3.2604499,3.2604499 0 0 0 0,4.61109 3.2604499,3.2604499 0 0 0 4.6110882,0 L 101.73022,95.132694 a 3.2604499,3.2604499 0 0 0 0,-4.611088 3.2604499,3.2604499 0 0 0 -2.305281,-0.955497 z m 20.415811,0 a 3.2604499,3.2604499 0 0 0 -2.30581,0.955497 L 6.1892863,201.86726 a 3.2604499,3.2604499 0 0 0 0,4.61109 3.2604499,3.2604499 0 0 0 4.6116047,0 L 122.14655,95.132694 a 3.2604499,3.2604499 0 0 0 0,-4.611088 3.2604499,3.2604499 0 0 0 -2.3058,-0.955497 z m 20.41632,0 a 3.2604499,3.2604499 0 0 0 -2.3058,0.955497 L 26.605611,201.86726 a 3.2604499,3.2604499 0 0 0 0,4.61109 3.2604499,3.2604499 0 0 0 4.611088,0 L 142.56236,95.132694 a 3.2604499,3.2604499 0 0 0 0,-4.611088 3.2604499,3.2604499 0 0 0 -2.30529,-0.955497 z m 40.83162,0 a 3.2604499,3.2604499 0 0 0 -2.30529,0.955497 L 67.437744,201.86726 a 3.2604499,3.2604499 0 0 0 0,4.61109 3.2604499,3.2604499 0 0 0 4.611088,0 L 183.39449,95.132694 a 3.2604499,3.2604499 0 0 0 0,-4.611088 3.2604499,3.2604499 0 0 0 -2.3058,-0.955497 z m 20.41632,0 a 3.2604499,3.2604499 0 0 0 -2.3058,0.955497 L 87.853552,201.86726 a 3.2604499,3.2604499 0 0 0 0,4.61109 3.2604499,3.2604499 0 0 0 4.611088,0 L 203.8103,95.132694 a 3.2604499,3.2604499 0 0 0 0,-4.611088 3.2604499,3.2604499 0 0 0 -2.30529,-0.955497 z m -40.8311,5.17e-4 a 3.2604499,3.2604499 0 0 0 -0.42581,0.02739 3.2604499,3.2604499 0 0 0 -1.20509,0.409278 3.2604499,3.2604499 0 0 0 -0.35502,0.236678 3.2604499,3.2604499 0 0 0 -0.32091,0.281636 L 47.021419,201.86726 a 3.2604499,3.2604499 0 0 0 -0.28112,4.2907 3.2604499,3.2604499 0 0 0 0.28112,0.32039 3.2604499,3.2604499 0 0 0 2.305803,0.9555 3.2604499,3.2604499 0 0 0 2.305802,-0.9555 L 162.97868,95.132694 a 3.2604499,3.2604499 0 0 0 0,-4.611088 3.2604499,3.2604499 0 0 0 -2.30477,-0.95498 z m 61.24794,0 a 3.2604499,3.2604499 0 0 0 -2.30683,0.95498 L 108.26936,201.86726 a 3.2604499,3.2604499 0 0 0 0,4.61109 3.2604499,3.2604499 0 0 0 4.61161,0 L 224.22662,95.132694 a 3.2604499,3.2604499 0 0 0 0,-4.611088 3.2604499,3.2604499 0 0 0 -2.30477,-0.95498 z m 20.41581,0 a 3.2604499,3.2604499 0 0 0 -2.30425,0.95498 L 128.68569,201.86726 a 3.2604499,3.2604499 0 0 0 0,4.61109 3.2604499,3.2604499 0 0 0 4.61108,0 L 244.64243,95.132694 a 3.2604499,3.2604499 0 0 0 0,-4.611088 3.2604499,3.2604499 0 0 0 -2.30477,-0.95498 z m 20.41633,0 a 3.2604499,3.2604499 0 0 0 -2.30477,0.95498 L 149.10149,201.86726 a 3.2604499,3.2604499 0 0 0 0,4.61109 3.2604499,3.2604499 0 0 0 4.61161,0 L 265.05876,95.132694 a 3.2604499,3.2604499 0 0 0 0,-4.611088 3.2604499,3.2604499 0 0 0 -2.30477,-0.95498 z"
       mask="url(#mask9)" />
  </g>
</svg>
