<?xml version="1.0" encoding="UTF-8" standalone="no"?>
<!-- Created with Inkscape (http://www.inkscape.org/) -->

<svg
   width="90.969292mm"
   height="90.969147mm"
   viewBox="0 0 90.969292 90.969147"
   version="1.1"
   id="svg1"
   xmlns="http://www.w3.org/2000/svg"
   xmlns:svg="http://www.w3.org/2000/svg">
  <defs
     id="defs1" />
  <g
     id="layer1"
     transform="translate(-25.066817,-27.470888)">
    <path
       style="fill:none;stroke:#000000;stroke-width:7.565;stroke-linecap:round;stroke-linejoin:round;stroke-dasharray:none"
       id="rect1"
       width="59.178001"
       height="59.178082"
       x="28.849316"
       y="55.47945"
       ry="2.947"
       d="m 31.796316,55.47945 h 53.284001 c 1.632638,0 2.947,1.314362 2.947,2.947 v 53.28408 c 0,1.63264 -1.314362,2.947 -2.947,2.947 H 31.796316 c -1.632638,0 -2.947,-1.31436 -2.947,-2.947 V 58.42645 c 0,-1.632638 1.314362,-2.947 2.947,-2.947 z" />
    <path
       style="display:none;fill:#000000;stroke:#000000;stroke-width:5.065;stroke-linecap:round;stroke-linejoin:round;stroke-dasharray:none"
       d="M 28.849314,114.65753 119.46575,24.041095"
       id="path23" />
    <path
       id="path15"
       style="fill:none;stroke:#000000;stroke-width:7.565;stroke-linecap:round;stroke-linejoin:round;stroke-dasharray:none"
       d="m 31.796352,55.479376 c -1.632638,0 -2.947107,1.314469 -2.947107,2.947107 V 79.705288 H 60.85401 c 1.632638,0 2.947107,1.314469 2.947107,2.947107 v 32.005285 h 21.279321 c 1.632638,0 2.947107,-1.31447 2.947107,-2.94711 V 58.426483 c 0,-1.632638 -1.314469,-2.947107 -2.947107,-2.947107 z"
       transform="translate(24.226068,-24.225987)" />
  </g>
</svg>
