<?xml version="1.0" encoding="UTF-8" standalone="no"?>
<!-- Created with Inkscape (http://www.inkscape.org/) -->

<svg
   width="116.34417mm"
   height="116.34367mm"
   viewBox="0 0 116.34417 116.34367"
   version="1.1"
   id="svg1"
   xmlns="http://www.w3.org/2000/svg"
   xmlns:svg="http://www.w3.org/2000/svg">
  <defs
     id="defs1" />
  <g
     id="layer1"
     transform="translate(-46.827955,-90.328158)">
    <path
       id="path1"
       style="fill:none;stroke:#000000;stroke-width:6.00001;stroke-linecap:round;stroke-linejoin:round;paint-order:markers fill stroke"
       d="m 94.768376,93.328153 c -1.14932,0 -2.07429,0.924977 -2.07429,2.074292 v 10.261905 a 44.568493,44.568493 0 0 0 -9.28212,3.84421 l -7.25589,-7.25589 c -0.81269,-0.81269 -2.12098,-0.81269 -2.93367,0 l -14.4694,14.4694 c -0.81269,0.81269 -0.81269,2.1215 0,2.93419 l 7.25589,7.25589 a 44.568493,44.568493 0 0 0 -3.84473,9.2816 h -10.26139 c -1.14932,0 -2.07481,0.9255 -2.07481,2.07481 v 20.46284 c 0,1.14931 0.92549,2.07481 2.07481,2.07481 h 10.26139 a 44.568493,44.568493 0 0 0 3.84473,9.2816 l -7.25589,7.25589 c -0.81269,0.81269 -0.81269,2.1215 0,2.93418 l 14.4694,14.46941 c 0.81269,0.81268 2.12098,0.81268 2.93367,0 l 7.25589,-7.25589 a 44.568493,44.568493 0 0 0 9.28212,3.84421 v 10.2619 c 0,1.14932 0.92497,2.0743 2.07429,2.0743 h 20.463354 c 1.14931,0 2.07429,-0.92498 2.07429,-2.0743 v -10.2619 a 44.568493,44.568493 0 0 0 9.2816,-3.84421 l 7.25641,7.25589 c 0.81269,0.81268 2.12098,0.81268 2.93367,0 l 14.4694,-14.46941 c 0.81269,-0.81268 0.81269,-2.12149 0,-2.93418 l -7.25589,-7.25589 a 44.568493,44.568493 0 0 0 3.84473,-9.2816 h 10.26139 c 1.14931,0 2.07481,-0.9255 2.07481,-2.07481 v -20.46284 c 0,-1.14931 -0.9255,-2.07481 -2.07481,-2.07481 h -10.26139 a 44.568493,44.568493 0 0 0 -3.84473,-9.2816 l 7.25589,-7.25589 c 0.81269,-0.81269 0.81269,-2.1215 0,-2.93419 l -14.4694,-14.4694 c -0.81269,-0.81269 -2.12098,-0.81269 -2.93367,0 l -7.25641,7.25589 a 44.568493,44.568493 0 0 0 -9.2816,-3.84421 V 95.402445 c 0,-1.149315 -0.92498,-2.074292 -2.07429,-2.074292 z" />
    <circle
       style="fill:none;stroke:#000000;stroke-width:6.00001;stroke-linecap:round;stroke-linejoin:round;paint-order:markers fill stroke"
       id="path14"
       cx="105.00005"
       cy="148.49998"
       r="25.746523" />
  </g>
</svg>
