<?xml version="1.0" encoding="UTF-8" standalone="no"?>
<!-- Created with Inkscape (http://www.inkscape.org/) -->

<svg
   width="116.88967mm"
   height="116.88965mm"
   viewBox="0 0 116.88967 116.88965"
   version="1.1"
   id="svg1"
   xmlns="http://www.w3.org/2000/svg"
   xmlns:svg="http://www.w3.org/2000/svg">
  <defs
     id="defs1" />
  <g
     id="layer1"
     transform="translate(-24.704017,-157.70897)">
    <path
       style="fill:none;stroke:#000000;stroke-width:8.70535;stroke-linecap:round;stroke-dasharray:none;paint-order:markers fill stroke"
       id="rect11"
       width="42.164383"
       height="42.164383"
       x="30.896591"
       y="171.24657"
       ry="6.0152507"
       d="m 36.911842,171.24657 h 30.133881 c 3.332449,0 6.015251,2.6828 6.015251,6.01525 v 30.13388 c 0,3.33245 -2.682802,6.01525 -6.015251,6.01525 H 36.911842 c -3.332449,0 -6.015251,-2.6828 -6.015251,-6.01525 v -30.13388 c 0,-3.33245 2.682802,-6.01525 6.015251,-6.01525 z m 59.3623,0 h 30.133878 c 3.33245,0 6.01525,2.6828 6.01525,6.01525 v 30.13388 c 0,3.33245 -2.6828,6.01525 -6.01525,6.01525 H 96.274142 c -3.332449,0 -6.015251,-2.6828 -6.015251,-6.01525 v -30.13388 c 0,-3.33245 2.682802,-6.01525 6.015251,-6.01525 z m 59.362298,0 h 30.13388 c 3.33245,0 6.01525,2.6828 6.01525,6.01525 v 30.13388 c 0,3.33245 -2.6828,6.01525 -6.01525,6.01525 h -30.13388 c -3.33245,0 -6.01525,-2.6828 -6.01525,-6.01525 v -30.13388 c 0,-3.33245 2.6828,-6.01525 6.01525,-6.01525 z m -118.724598,59.3623 h 30.133881 c 3.332449,0 6.015251,2.6828 6.015251,6.01525 V 266.758 c 0,3.33245 -2.682802,6.01525 -6.015251,6.01525 H 36.911842 c -3.332449,0 -6.015251,-2.6828 -6.015251,-6.01525 v -30.13388 c 0,-3.33245 2.682802,-6.01525 6.015251,-6.01525 z m 59.3623,0 h 30.133878 c 3.33245,0 6.01525,2.6828 6.01525,6.01525 V 266.758 c 0,3.33245 -2.6828,6.01525 -6.01525,6.01525 H 96.274142 c -3.332449,0 -6.015251,-2.6828 -6.015251,-6.01525 v -30.13388 c 0,-3.33245 2.682802,-6.01525 6.015251,-6.01525 z m 59.362298,0 h 30.13388 c 3.33245,0 6.01525,2.6828 6.01525,6.01525 V 266.758 c 0,3.33245 -2.6828,6.01525 -6.01525,6.01525 h -30.13388 c -3.33245,0 -6.01525,-2.6828 -6.01525,-6.01525 v -30.13388 c 0,-3.33245 2.6828,-6.01525 6.01525,-6.01525 z m -118.724598,59.3623 h 30.133881 c 3.332449,0 6.015251,2.6828 6.015251,6.01525 v 30.13388 c 0,3.33245 -2.682802,6.01525 -6.015251,6.01525 H 36.911842 c -3.332449,0 -6.015251,-2.6828 -6.015251,-6.01525 v -30.13388 c 0,-3.33245 2.682802,-6.01525 6.015251,-6.01525 z m 59.3623,0 h 30.133878 c 3.33245,0 6.01525,2.6828 6.01525,6.01525 v 30.13388 c 0,3.33245 -2.6828,6.01525 -6.01525,6.01525 H 96.274142 c -3.332449,0 -6.015251,-2.6828 -6.015251,-6.01525 v -30.13388 c 0,-3.33245 2.682802,-6.01525 6.015251,-6.01525 z m 59.362298,0 h 30.13388 c 3.33245,0 6.01525,2.6828 6.01525,6.01525 v 30.13388 c 0,3.33245 -2.6828,6.01525 -6.01525,6.01525 h -30.13388 c -3.33245,0 -6.01525,-2.6828 -6.01525,-6.01525 v -30.13388 c 0,-3.33245 2.6828,-6.01525 6.01525,-6.01525 z"
       transform="matrix(0.68923101,0,0,0.68923101,6.4091256,42.68051)" />
  </g>
</svg>
